<svg xmlns="http://www.w3.org/2000/svg" width="181" height="161" viewBox="0 0 181 161" fill="none">
<path d="M168.785 160.602C166.061 160.602 163.64 160.03 161.521 158.887C159.436 157.71 157.789 156.113 156.578 154.095C155.401 152.077 154.812 149.757 154.812 147.134C154.812 145.049 155.149 143.149 155.821 141.434C156.494 139.719 157.419 138.239 158.596 136.995C159.806 135.717 161.235 134.742 162.883 134.07C164.565 133.363 166.38 133.01 168.331 133.01C170.046 133.01 171.643 133.347 173.123 134.019C174.602 134.658 175.88 135.549 176.956 136.693C178.066 137.836 178.907 139.198 179.478 140.778C180.084 142.325 180.37 144.023 180.336 145.873L180.285 148.092H158.646L157.486 143.956H175.796L175.04 144.814V143.603C174.939 142.493 174.569 141.501 173.93 140.627C173.291 139.753 172.484 139.063 171.509 138.559C170.533 138.055 169.474 137.802 168.331 137.802C166.515 137.802 164.985 138.155 163.741 138.862C162.496 139.534 161.555 140.543 160.916 141.888C160.277 143.2 159.958 144.83 159.958 146.781C159.958 148.63 160.344 150.245 161.118 151.623C161.891 152.968 162.984 154.011 164.396 154.751C165.809 155.49 167.44 155.86 169.289 155.86C170.601 155.86 171.811 155.642 172.921 155.205C174.064 154.767 175.292 153.977 176.603 152.834L179.226 156.516C178.419 157.323 177.427 158.029 176.25 158.635C175.107 159.24 173.879 159.728 172.568 160.097C171.29 160.434 170.029 160.602 168.785 160.602Z" fill="#000000"/>
<path d="M140.588 160.097V126.856H145.783V160.097H140.588ZM135.09 138.66V133.615H151.937V138.66H135.09Z" fill="#000000"/>
<path d="M115.584 160.601C113.398 160.601 111.397 159.996 109.581 158.785C107.799 157.574 106.37 155.927 105.294 153.842C104.218 151.757 103.68 149.403 103.68 146.78C103.68 144.123 104.218 141.769 105.294 139.718C106.404 137.633 107.883 136.002 109.733 134.825C111.616 133.648 113.718 133.06 116.038 133.06C117.417 133.06 118.678 133.262 119.821 133.665C120.964 134.069 121.956 134.64 122.797 135.38C123.671 136.086 124.378 136.91 124.916 137.852C125.487 138.793 125.84 139.802 125.975 140.878L124.815 140.475V133.615H130.061V160.096H124.815V153.791L126.025 153.438C125.823 154.346 125.403 155.237 124.764 156.112C124.159 156.952 123.369 157.709 122.393 158.381C121.452 159.054 120.393 159.592 119.216 159.996C118.072 160.399 116.862 160.601 115.584 160.601ZM116.946 155.809C118.526 155.809 119.922 155.422 121.132 154.649C122.343 153.875 123.285 152.816 123.957 151.471C124.663 150.092 125.016 148.529 125.016 146.78C125.016 145.065 124.663 143.535 123.957 142.19C123.285 140.845 122.343 139.785 121.132 139.012C119.922 138.238 118.526 137.852 116.946 137.852C115.399 137.852 114.02 138.238 112.81 139.012C111.633 139.785 110.691 140.845 109.985 142.19C109.312 143.535 108.976 145.065 108.976 146.78C108.976 148.529 109.312 150.092 109.985 151.471C110.691 152.816 111.633 153.875 112.81 154.649C114.02 155.422 115.399 155.809 116.946 155.809Z" fill="#000000"/>
<path d="M58.8359 160.099V133.617H64.0817V139.267L63.1234 139.872C63.3924 138.998 63.8127 138.157 64.3844 137.35C64.9897 136.543 65.7126 135.837 66.5533 135.232C67.4276 134.593 68.3523 134.088 69.3275 133.718C70.3363 133.348 71.3619 133.163 72.4044 133.163C73.9176 133.163 75.2458 133.416 76.3892 133.92C77.5325 134.424 78.474 135.181 79.2138 136.19C79.9536 137.199 80.4916 138.46 80.8279 139.973L80.0209 139.771L80.374 138.914C80.7438 138.14 81.2482 137.417 81.8872 136.745C82.5597 136.039 83.3163 135.416 84.157 134.878C84.9976 134.34 85.8888 133.92 86.8303 133.617C87.7719 133.315 88.6966 133.163 89.6045 133.163C91.5885 133.163 93.2194 133.567 94.4972 134.374C95.8087 135.181 96.7839 136.408 97.4228 138.056C98.0953 139.704 98.4316 141.755 98.4316 144.21V160.099H93.1858V144.513C93.1858 142.999 92.984 141.772 92.5805 140.83C92.2106 139.855 91.639 139.132 90.8655 138.661C90.0921 138.191 89.1001 137.955 87.8896 137.955C86.948 137.955 86.0569 138.123 85.2162 138.46C84.4092 138.762 83.703 139.199 83.0977 139.771C82.4924 140.343 82.0217 141.015 81.6854 141.789C81.3491 142.529 81.181 143.352 81.181 144.26V160.099H75.9352V144.412C75.9352 143.033 75.7334 141.873 75.3299 140.931C74.9264 139.956 74.3379 139.216 73.5645 138.712C72.7911 138.207 71.8495 137.955 70.7399 137.955C69.7983 137.955 68.924 138.123 68.117 138.46C67.3099 138.762 66.6037 139.199 65.9985 139.771C65.3932 140.309 64.9224 140.965 64.5861 141.738C64.2499 142.478 64.0817 143.285 64.0817 144.159V160.099H58.8359Z" fill="#000000"/>
<path d="M48.2214 160.099L39.6464 148.951L38.8898 147.993L27.7422 133.617H34.2996L42.7233 144.613L43.5808 145.723L54.5771 160.099H48.2214ZM27.7926 160.099L38.234 146.479L41.311 150.162L33.9465 160.099H27.7926ZM43.8835 147.286L41.0083 143.655L47.5153 133.617H53.6691L43.8835 147.286Z" fill="#000000"/>
<path d="M9.35936 160.603C7.47621 160.603 5.82846 160.166 4.41609 159.292C3.03736 158.417 1.96127 157.19 1.18784 155.609C0.448029 154.029 0.078125 152.146 0.078125 149.96V133.617H5.2736V148.548C5.2736 150.094 5.50899 151.439 5.97978 152.583C6.48419 153.693 7.19038 154.55 8.09832 155.155C9.0399 155.761 10.1664 156.063 11.4779 156.063C12.4531 156.063 13.3442 155.912 14.1513 155.609C14.9584 155.273 15.6477 154.819 16.2194 154.247C16.8247 153.676 17.2955 152.986 17.6318 152.179C17.968 151.372 18.1362 150.498 18.1362 149.556V133.617H23.3317V160.099H18.1362V154.55L19.0441 153.945C18.6406 155.189 17.9512 156.315 16.976 157.324C16.0345 158.333 14.9079 159.14 13.5964 159.746C12.285 160.317 10.8726 160.603 9.35936 160.603Z" fill="#000000"/>
<path d="M130.318 1L103.005 41.3059L128.735 81.9463H104.259L90.0631 59.8708L75.5461 81.9463H50.933L77.4837 41.3059L50.4832 1.30133L50.2793 1C47.3789 1 45.0273 3.36212 45.0273 6.27629V64.7433H45.0303C45.0963 84.0947 60.4622 100.225 80.885 103.973L90.159 89.7447L99.2592 103.937C107.924 102.313 115.672 98.4531 121.713 93.0683C129.844 85.8214 134.886 75.8112 134.925 64.7433V5.62843C134.925 3.07225 132.862 1 130.318 1Z" stroke="#000000" stroke-width="2" stroke-miterlimit="10" fill="#ffffff"/>
<path d="M89.857 22.9098L103.939 1.30142L104.134 1.00009H76.0073L89.8576 22.6073L89.857 22.6085L76.0058 1.00009H75.8139L76.0058 1.30142L89.857 22.9098Z" stroke="#000000" stroke-width="2" stroke-miterlimit="10" fill="#ffffff"/>
</svg>